{
  "accessors": [
    {
      "bufferView": 0,
      "componentType": 5125,
      "count": 1008,
      "type": "SCALAR"
    },
    {
      "bufferView": 1,
      "componentType": 5126,
      "count": 258,
      "max": [
        30.2999973297119,
        191.088073730469,
        12.0
      ],
      "min": [
        29.2999973297119,
        0.0,
        -12.0
      ],
      "type": "VEC3"
    },
    {
      "bufferView": 2,
      "componentType": 5126,
      "count": 258,
      "type": "VEC3"
    },
    {
      "bufferView": 3,
      "componentType": 5126,
      "count": 258,
      "type": "VEC4"
    },
    {
      "bufferView": 4,
      "componentType": 5126,
      "count": 258,
      "type": "VEC2"
    }
  ],
  "asset": {
    "generator": "Adobe Substance 3D Painter 9.0.0",
    "version": "2.0"
  },
  "bufferViews": [
    {
      "buffer": 0,
      "byteLength": 4032,
      "target": 34963
    },
    {
      "buffer": 0,
      "byteLength": 3096,
      "byteOffset": 4032,
      "target": 34962
    },
    {
      "buffer": 0,
      "byteLength": 3096,
      "byteOffset": 7128,
      "target": 34962
    },
    {
      "buffer": 0,
      "byteLength": 4128,
      "byteOffset": 10224,
      "target": 34962
    },
    {
      "buffer": 0,
      "byteLength": 2064,
      "byteOffset": 14352,
      "target": 34962
    }
  ],
  "buffers": [
    {
      "byteLength": 16416,
      "uri": "Untitled.bin"
    }
  ],
  "images": [
    {
      "uri": "phong1SG_baseColor.png"
    },
    {
      "uri": "phong1SG_occlusionRoughnessMetallic.png"
    },
    {
      "uri": "phong1SG_normal.png"
    }
  ],
  "materials": [
    {
      "alphaMode": "OPAQUE",
      "name": "phong1SG",
      "normalTexture": {
        "index": 2
      },
      "occlusionTexture": {
        "index": 1
      },
      "pbrMetallicRoughness": {
        "baseColorTexture": {
          "index": 0
        },
        "metallicRoughnessTexture": {
          "index": 1
        }
      }
    }
  ],
  "meshes": [
    {
      "name": "fence1",
      "primitives": [
        {
          "attributes": {
            "NORMAL": 2,
            "POSITION": 1,
            "TANGENT": 3,
            "TEXCOORD_0": 4
          },
          "indices": 0,
          "material": 0,
          "mode": 4
        }
      ]
    }
  ],
  "nodes": [
    {
      "children": [
        1
      ],
      "name": "fence.obj"
    },
    {
      "children": [
        2
      ],
      "name": "fence1"
    },
    {
      "mesh": 0,
      "name": "fence1"
    }
  ],
  "samplers": [
    {
      "magFilter": 9729,
      "minFilter": 9985,
      "wrapS": 10497,
      "wrapT": 10497
    }
  ],
  "scene": 0,
  "scenes": [
    {
      "name": "Scene",
      "nodes": [
        0
      ]
    }
  ],
  "textures": [
    {
      "sampler": 0,
      "source": 0
    },
    {
      "sampler": 0,
      "source": 1
    },
    {
      "sampler": 0,
      "source": 2
    }
  ]
}