# This file uses centimeters as units for non-parametric coordinates.

mtllib nail.mtl
g default
v 29.307213 60.519040 -0.205179
v 29.307213 60.424729 -0.390274
v 29.307213 60.277837 -0.537166
v 29.307213 60.092742 -0.631477
v 29.307213 59.887563 -0.663974
v 29.307213 59.682384 -0.631477
v 29.307213 59.497289 -0.537166
v 29.307213 59.350397 -0.390274
v 29.307213 59.256087 -0.205179
v 29.307213 59.223590 -0.000000
v 29.307213 59.256087 0.205179
v 29.307213 59.350397 0.390274
v 29.307213 59.497289 0.537166
v 29.307213 59.682384 0.631476
v 29.307213 59.887563 0.663973
v 29.307213 60.092742 0.631476
v 29.307213 60.277837 0.537166
v 29.307213 60.424729 0.390274
v 29.307213 60.519040 0.205179
v 29.307213 60.551536 -0.000000
v 26.723672 60.519040 -0.205179
v 26.723672 60.424729 -0.390274
v 26.723672 60.277837 -0.537166
v 26.723672 60.092742 -0.631476
v 26.723672 59.887563 -0.663974
v 26.723672 59.682384 -0.631476
v 26.723672 59.497289 -0.537166
v 26.723672 59.350397 -0.390274
v 26.723672 59.256087 -0.205179
v 26.723672 59.215871 -0.000920
v 26.723672 59.248369 0.204259
v 26.723672 59.350397 0.390274
v 26.723672 59.497289 0.537166
v 26.723672 59.682384 0.631476
v 26.723672 59.887563 0.663973
v 26.723672 60.092742 0.631476
v 26.723672 60.277837 0.537166
v 26.723672 60.424729 0.390274
v 26.723672 60.519040 0.205179
v 26.723672 60.551536 -0.000000
v 29.307213 59.887563 -0.000000
v 25.105765 59.885923 -0.000717
v 25.105765 59.885595 -0.001364
v 25.105765 59.883690 -0.000003
v 25.105765 59.885081 -0.001877
v 25.105765 59.884434 -0.002207
v 25.105765 59.883717 -0.002320
v 25.105765 59.883001 -0.002207
v 25.105765 59.882354 -0.001877
v 25.105765 59.881841 -0.001364
v 25.105765 59.881510 -0.000717
v 25.105765 59.881371 -0.000003
v 25.105765 59.881485 0.000713
v 25.105765 59.881841 0.001364
v 25.105765 59.882354 0.001877
v 25.105765 59.883001 0.002206
v 25.105765 59.883717 0.002320
v 25.105765 59.884434 0.002206
v 25.105765 59.885081 0.001877
v 25.105765 59.885595 0.001364
v 25.105765 59.885923 0.000717
v 25.105765 59.886036 -0.000000
vt 0.648603 0.107966
vt 0.626409 0.064408
vt 0.591842 0.029841
vt 0.548284 0.007647
vt 0.500000 -0.000000
vt 0.451716 0.007647
vt 0.408159 0.029841
vt 0.373591 0.064409
vt 0.351397 0.107966
vt 0.343750 0.156250
vt 0.351397 0.204534
vt 0.373591 0.248091
vt 0.408159 0.282659
vt 0.451716 0.304853
vt 0.500000 0.312500
vt 0.548284 0.304853
vt 0.591841 0.282659
vt 0.626409 0.248091
vt 0.648603 0.204534
vt 0.656250 0.156250
vt 0.375000 0.312500
vt 0.387500 0.312500
vt 0.400000 0.312500
vt 0.412500 0.312500
vt 0.425000 0.312500
vt 0.437500 0.312500
vt 0.450000 0.312500
vt 0.462500 0.312500
vt 0.475000 0.312500
vt 0.487500 0.312500
vt 0.500000 0.312500
vt 0.512500 0.312500
vt 0.525000 0.312500
vt 0.537500 0.312500
vt 0.550000 0.312500
vt 0.562500 0.312500
vt 0.575000 0.312500
vt 0.587500 0.312500
vt 0.600000 0.312500
vt 0.612500 0.312500
vt 0.625000 0.312500
vt 0.375000 0.687500
vt 0.387500 0.687500
vt 0.400000 0.687500
vt 0.412500 0.687500
vt 0.425000 0.687500
vt 0.437500 0.687500
vt 0.450000 0.687500
vt 0.462500 0.687500
vt 0.475000 0.687500
vt 0.487500 0.687500
vt 0.500000 0.687500
vt 0.512500 0.687500
vt 0.525000 0.687500
vt 0.537500 0.687500
vt 0.550000 0.687500
vt 0.562500 0.687500
vt 0.575000 0.687500
vt 0.587500 0.687500
vt 0.600000 0.687500
vt 0.612500 0.687500
vt 0.625000 0.687500
vt 0.648603 0.795466
vt 0.626409 0.751908
vt 0.591842 0.717341
vt 0.548284 0.695147
vt 0.500000 0.687500
vt 0.451716 0.695147
vt 0.408159 0.717341
vt 0.373591 0.751909
vt 0.351397 0.795466
vt 0.343750 0.843750
vt 0.351397 0.892034
vt 0.373591 0.935591
vt 0.408159 0.970159
vt 0.451716 0.992353
vt 0.500000 1.000000
vt 0.548284 0.992353
vt 0.591841 0.970159
vt 0.626409 0.935591
vt 0.648603 0.892034
vt 0.656250 0.843750
vt 0.500000 0.156250
vt 0.500000 0.843750
vt 0.648603 0.892034
vt 0.626409 0.935591
vt 0.591841 0.970159
vt 0.548284 0.992353
vt 0.500000 1.000000
vt 0.451716 0.992353
vt 0.408159 0.970159
vt 0.373591 0.935591
vt 0.351397 0.892034
vt 0.343750 0.843750
vt 0.351397 0.795466
vt 0.373591 0.751909
vt 0.408159 0.717341
vt 0.451716 0.695147
vt 0.500000 0.687500
vt 0.548284 0.695147
vt 0.591842 0.717341
vt 0.626409 0.751908
vt 0.648603 0.795466
vt 0.656250 0.843750
vn -0.000000 0.951057 -0.309016
vn -0.000000 0.809017 -0.587785
vn -0.094949 0.805380 -0.585105
vn -0.095024 0.946759 -0.307602
vn -0.000000 0.587786 -0.809017
vn -0.094832 0.585171 -0.805346
vn -0.000000 0.309017 -0.951057
vn -0.094684 0.307677 -0.946768
vn -0.000000 0.000000 -1.000000
vn -0.094520 0.000053 -0.995523
vn -0.000000 -0.309018 -0.951056
vn -0.094356 -0.307591 -0.946829
vn -0.000000 -0.587786 -0.809017
vn -0.094208 -0.585137 -0.805444
vn -0.000000 -0.809017 -0.587786
vn -0.094091 -0.805409 -0.585204
vn 0.000760 -0.948150 -0.317823
vn -0.093900 -0.943319 -0.318325
vn 0.002229 -0.999954 -0.009376
vn -0.092963 -0.995604 -0.011392
vn 0.002089 -0.948332 0.317274
vn -0.093422 -0.943695 0.317352
vn 0.000629 -0.804939 0.593357
vn -0.094346 -0.800463 0.591910
vn -0.000000 -0.587785 0.809017
vn -0.094208 -0.585136 0.805444
vn -0.000000 -0.309017 0.951057
vn -0.094356 -0.307591 0.946829
vn -0.000000 0.000000 1.000000
vn -0.094520 0.000053 0.995523
vn -0.000000 0.309017 0.951056
vn -0.094684 0.307677 0.946768
vn -0.000000 0.587785 0.809017
vn -0.094831 0.585171 0.805346
vn 0.000000 0.809017 0.587786
vn -0.094949 0.805380 0.585105
vn 0.000000 0.951057 0.309016
vn -0.095024 0.946759 0.307602
vn -0.000000 1.000000 0.000000
vn -0.095050 0.995472 0.000000
vn 1.000000 0.000000 0.000000
vn 1.000000 0.000000 0.000000
vn 1.000000 0.000000 -0.000000
vn 1.000000 0.000000 -0.000000
vn 1.000000 0.000000 -0.000000
vn 1.000000 0.000000 -0.000000
vn 1.000000 -0.000000 -0.000000
vn 1.000000 -0.000000 0.000000
vn 1.000000 -0.000000 0.000000
vn 1.000000 -0.000000 0.000000
vn 1.000000 -0.000000 0.000000
vn 1.000000 -0.000000 0.000000
vn 1.000000 -0.000000 0.000000
vn 1.000000 -0.000000 0.000000
vn 1.000000 -0.000000 0.000000
vn 1.000000 0.000000 0.000000
vn 1.000000 0.000000 0.000000
vn 1.000000 0.000000 0.000000
vn 1.000000 0.000000 0.000000
vn 1.000000 0.000000 0.000000
vn 1.000000 0.000000 0.000000
vn -1.000000 0.000000 0.000000
vn -1.000000 0.000000 -0.000276
vn -1.000000 0.000000 -0.000008
vn -1.000000 0.000000 -0.000142
vn -1.000000 0.000000 0.000141
vn -1.000000 0.000000 0.000030
vn -1.000000 0.000000 -0.000039
vn -1.000000 0.000000 -0.000211
vn -1.000000 0.000000 -0.000142
vn -1.000000 0.000000 0.000285
vn -1.000000 0.000000 0.000277
vn -1.000000 0.000000 -0.000275
vn -1.000000 0.000000 -0.000280
vn -1.000000 0.000000 0.000142
vn -1.000000 0.000000 0.000139
vn -1.000000 0.000000 0.000031
vn -1.000000 0.000000 -0.000040
vn -1.000000 0.000000 0.000071
vn -1.000000 0.000000 0.000138
vn -1.000000 0.000000 0.000000
vn -1.000000 0.000000 0.000000
vn -0.380050 0.748253 -0.543764
vn -0.380317 0.879583 -0.285818
vn -0.379633 0.543644 -0.748552
vn -0.379108 0.285778 -0.880118
vn -0.378526 -0.000196 -0.925591
vn -0.377943 -0.286286 -0.880454
vn -0.377417 -0.544439 -0.749094
vn -0.377000 -0.749373 -0.544344
vn -0.376685 -0.875397 -0.302967
vn -0.380356 -0.924664 -0.018044
vn -0.380109 -0.874458 0.301399
vn -0.376984 -0.741576 0.554930
vn -0.377417 -0.544430 0.749101
vn -0.377943 -0.286276 0.880457
vn -0.378526 -0.000196 0.925591
vn -0.379108 0.285769 0.880121
vn -0.379633 0.543636 0.748558
vn -0.380050 0.748255 0.543761
vn -0.380317 0.879585 0.285814
vn -0.380409 0.924818 0.000001
s 1
g nail
usemtl phong2SG
f 1/21/1 2/22/2 22/43/3 21/42/4
f 2/22/2 3/23/5 23/44/6 22/43/3
f 3/23/5 4/24/7 24/45/8 23/44/6
f 4/24/7 5/25/9 25/46/10 24/45/8
f 5/25/9 6/26/11 26/47/12 25/46/10
f 6/26/11 7/27/13 27/48/14 26/47/12
f 7/27/13 8/28/15 28/49/16 27/48/14
f 8/28/15 9/29/17 29/50/18 28/49/16
f 9/29/17 10/30/19 30/51/20 29/50/18
f 10/30/19 11/31/21 31/52/22 30/51/20
f 11/31/21 12/32/23 32/53/24 31/52/22
f 12/32/23 13/33/25 33/54/26 32/53/24
f 13/33/25 14/34/27 34/55/28 33/54/26
f 14/34/27 15/35/29 35/56/30 34/55/28
f 15/35/29 16/36/31 36/57/32 35/56/30
f 16/36/31 17/37/33 37/58/34 36/57/32
f 17/37/33 18/38/35 38/59/36 37/58/34
f 18/38/35 19/39/37 39/60/38 38/59/36
f 19/39/37 20/40/39 40/61/40 39/60/38
f 20/40/39 1/41/1 21/62/4 40/61/40
s 2
f 2/2/41 1/1/42 41/83/43
f 3/3/44 2/2/41 41/83/43
f 4/4/45 3/3/44 41/83/43
f 5/5/46 4/4/45 41/83/43
f 6/6/47 5/5/46 41/83/43
f 7/7/48 6/6/47 41/83/43
f 8/8/49 7/7/48 41/83/43
f 9/9/50 8/8/49 41/83/43
f 10/10/51 9/9/50 41/83/43
f 11/11/52 10/10/51 41/83/43
f 12/12/53 11/11/52 41/83/43
f 13/13/54 12/12/53 41/83/43
f 14/14/55 13/13/54 41/83/43
f 15/15/56 14/14/55 41/83/43
f 16/16/57 15/15/56 41/83/43
f 17/17/58 16/16/57 41/83/43
f 18/18/59 17/17/58 41/83/43
f 19/19/60 18/18/59 41/83/43
f 20/20/61 19/19/60 41/83/43
f 1/1/42 20/20/61 41/83/43
s 3
f 42/85/62 43/86/63 44/84/64
f 43/86/63 45/87/65 44/84/64
f 45/87/65 46/88/66 44/84/64
f 46/88/66 47/89/67 44/84/64
f 47/89/67 48/90/68 44/84/64
f 48/90/68 49/91/69 44/84/64
f 49/91/69 50/92/70 44/84/64
f 50/92/70 51/93/71 44/84/64
f 51/93/71 52/94/72 44/84/64
f 52/94/72 53/95/73 44/84/64
f 53/95/73 54/96/74 44/84/64
f 54/96/74 55/97/75 44/84/64
f 55/97/75 56/98/76 44/84/64
f 56/98/76 57/99/77 44/84/64
f 57/99/77 58/100/78 44/84/64
f 58/100/78 59/101/79 44/84/64
f 59/101/79 60/102/80 44/84/64
f 60/102/80 61/103/81 44/84/64
f 61/103/81 62/104/82 44/84/64
f 62/104/82 42/85/62 44/84/64
s 1
f 21/81/4 22/80/3 43/86/83 42/85/84
f 22/80/3 23/79/6 45/87/85 43/86/83
f 23/79/6 24/78/8 46/88/86 45/87/85
f 24/78/8 25/77/10 47/89/87 46/88/86
f 25/77/10 26/76/12 48/90/88 47/89/87
f 26/76/12 27/75/14 49/91/89 48/90/88
f 27/75/14 28/74/16 50/92/90 49/91/89
f 28/74/16 29/73/18 51/93/91 50/92/90
f 29/73/18 30/72/20 52/94/92 51/93/91
f 30/72/20 31/71/22 53/95/93 52/94/92
f 31/71/22 32/70/24 54/96/94 53/95/93
f 32/70/24 33/69/26 55/97/95 54/96/94
f 33/69/26 34/68/28 56/98/96 55/97/95
f 34/68/28 35/67/30 57/99/97 56/98/96
f 35/67/30 36/66/32 58/100/98 57/99/97
f 36/66/32 37/65/34 59/101/99 58/100/98
f 37/65/34 38/64/36 60/102/100 59/101/99
f 38/64/36 39/63/38 61/103/101 60/102/100
f 39/63/38 40/82/40 62/104/102 61/103/101
f 40/82/40 21/81/4 42/85/84 62/104/102
