# This file uses centimeters as units for non-parametric coordinates.

mtllib pool_cue.mtl
g default
v -150.700366 106.651884 -0.108922
v -150.700366 106.601824 -0.207182
v -150.700366 106.523843 -0.285162
v -150.700366 106.425587 -0.335228
v -150.700366 106.316661 -0.352479
v -150.700366 106.207736 -0.335228
v -150.700366 106.109480 -0.285162
v -150.700366 106.031499 -0.207182
v -150.700366 105.981439 -0.108922
v -150.700366 105.964188 -0.000000
v -150.700366 105.981439 0.108922
v -150.700366 106.031499 0.207181
v -150.700366 106.109480 0.285162
v -150.700366 106.207736 0.335227
v -150.700366 106.316661 0.352478
v -150.700366 106.425587 0.335227
v -150.700366 106.523843 0.285162
v -150.700366 106.601824 0.207181
v -150.700366 106.651884 0.108922
v -150.700366 106.669135 -0.000000
v -290.565476 107.855979 -0.500154
v -290.565476 107.626088 -0.951350
v -290.565476 107.268009 -1.309421
v -290.565476 106.816810 -1.539317
v -290.565476 106.316661 -1.618533
v -290.565476 105.816513 -1.539316
v -290.565476 105.365314 -1.309421
v -290.565476 105.007235 -0.951350
v -290.565476 104.777344 -0.500154
v -290.565476 104.698129 0.000000
v -290.565476 104.777344 0.500154
v -290.565476 105.007247 0.951350
v -290.565476 105.365314 1.309421
v -290.565476 105.816513 1.539316
v -290.565476 106.316661 1.618533
v -290.565476 106.816810 1.539316
v -290.565476 107.268009 1.309420
v -290.565476 107.626076 0.951350
v -290.565476 107.855979 0.500154
v -290.565476 107.935194 0.000000
v -290.565476 106.316661 0.000000
v -150.514593 106.316662 -0.000000
v -150.514593 106.447765 -0.042607
v -150.528732 106.525881 -0.067984
v -150.568981 106.592093 -0.089498
v -150.629271 106.636350 -0.103874
v -150.629271 106.588611 -0.197579
v -150.568981 106.550973 -0.170235
v -150.528732 106.494639 -0.129309
v -150.514593 106.428192 -0.081035
v -150.629271 106.514236 -0.271946
v -150.568981 106.486897 -0.234307
v -150.528732 106.445961 -0.177978
v -150.514593 106.397691 -0.111533
v -150.629271 106.420536 -0.319691
v -150.568981 106.406163 -0.275444
v -150.528732 106.384639 -0.209225
v -150.514593 106.359263 -0.131113
v -150.629271 106.316662 -0.336143
v -150.568981 106.316662 -0.289619
v -150.528732 106.316662 -0.219991
v -150.514593 106.316661 -0.137860
v -150.629271 106.212786 -0.319691
v -150.568981 106.227160 -0.275444
v -150.528732 106.248683 -0.209225
v -150.514593 106.274059 -0.131113
v -150.629271 106.119087 -0.271945
v -150.568981 106.146426 -0.234307
v -150.528732 106.187361 -0.177978
v -150.514593 106.235631 -0.111533
v -150.629271 106.044712 -0.197579
v -150.568981 106.082350 -0.170234
v -150.528732 106.138684 -0.129309
v -150.514593 106.205130 -0.081035
v -150.629271 105.996973 -0.103874
v -150.568981 106.041230 -0.089499
v -150.528732 106.107442 -0.067984
v -150.514593 106.185558 -0.042606
v -150.629271 105.980525 -0.000000
v -150.568981 106.027041 -0.000000
v -150.528732 106.096674 -0.000000
v -150.514593 106.178804 -0.000000
v -150.629271 105.996973 0.103874
v -150.568981 106.041230 0.089498
v -150.528732 106.107442 0.067984
v -150.514593 106.185558 0.042606
v -150.629271 106.044712 0.197578
v -150.568981 106.082350 0.170229
v -150.528732 106.138684 0.129300
v -150.514593 106.205130 0.081020
v -150.629271 106.119087 0.271945
v -150.568981 106.146438 0.234307
v -150.528732 106.187361 0.177976
v -150.514593 106.235631 0.111529
v -150.629271 106.212799 0.319691
v -150.568981 106.227185 0.275445
v -150.528732 106.248696 0.209227
v -150.514593 106.274084 0.131116
v -150.629271 106.316661 0.336141
v -150.568981 106.316661 0.289618
v -150.528732 106.316661 0.219990
v -150.514593 106.316661 0.137859
v -150.629271 106.420524 0.319691
v -150.568981 106.406138 0.275446
v -150.528732 106.384627 0.209229
v -150.514593 106.359239 0.131120
v -150.629271 106.514236 0.271945
v -150.568981 106.486884 0.234307
v -150.528732 106.445962 0.177978
v -150.514593 106.397692 0.111532
v -150.629271 106.588611 0.197578
v -150.568981 106.550973 0.170229
v -150.528732 106.494639 0.129300
v -150.514593 106.428192 0.081020
v -150.629271 106.636350 0.103874
v -150.568981 106.592093 0.089498
v -150.528732 106.525881 0.067984
v -150.514593 106.447765 0.042606
v -150.629271 106.652798 -0.000000
v -150.568981 106.606281 -0.000000
v -150.528732 106.536649 -0.000000
v -150.514593 106.454519 -0.000000
vt 0.375000 0.312500
vt 0.387500 0.312500
vt 0.400000 0.312500
vt 0.412500 0.312500
vt 0.425000 0.312500
vt 0.437500 0.312500
vt 0.450000 0.312500
vt 0.462500 0.312500
vt 0.475000 0.312500
vt 0.487500 0.312500
vt 0.500000 0.312500
vt 0.512500 0.312500
vt 0.525000 0.312500
vt 0.537500 0.312500
vt 0.550000 0.312500
vt 0.562500 0.312500
vt 0.575000 0.312500
vt 0.587500 0.312500
vt 0.600000 0.312500
vt 0.612500 0.312500
vt 0.625000 0.312500
vt 0.375000 0.687500
vt 0.387500 0.687500
vt 0.400000 0.687500
vt 0.412500 0.687500
vt 0.425000 0.687500
vt 0.437500 0.687500
vt 0.450000 0.687500
vt 0.462500 0.687500
vt 0.475000 0.687500
vt 0.487500 0.687500
vt 0.500000 0.687500
vt 0.512500 0.687500
vt 0.525000 0.687500
vt 0.537500 0.687500
vt 0.550000 0.687500
vt 0.562500 0.687500
vt 0.575000 0.687500
vt 0.587500 0.687500
vt 0.600000 0.687500
vt 0.612500 0.687500
vt 0.625000 0.687500
vt 0.648603 0.795466
vt 0.626409 0.751908
vt 0.591842 0.717341
vt 0.548284 0.695147
vt 0.500000 0.687500
vt 0.451716 0.695147
vt 0.408159 0.717341
vt 0.373591 0.751909
vt 0.351397 0.795466
vt 0.343750 0.843750
vt 0.351397 0.892034
vt 0.373591 0.935591
vt 0.408159 0.970159
vt 0.451716 0.992353
vt 0.500000 1.000000
vt 0.548284 0.992353
vt 0.591841 0.970159
vt 0.626409 0.935591
vt 0.648603 0.892034
vt 0.656250 0.843750
vt 0.500000 0.843750
vt 0.558118 0.137363
vt 0.549440 0.120328
vt 0.535920 0.106809
vt 0.518885 0.098129
vt 0.500000 0.095138
vt 0.481115 0.098129
vt 0.464080 0.106809
vt 0.450560 0.120328
vt 0.441882 0.137363
vt 0.438888 0.156250
vt 0.441882 0.175137
vt 0.450560 0.192165
vt 0.464076 0.205690
vt 0.481122 0.214372
vt 0.500000 0.217361
vt 0.518878 0.214374
vt 0.535924 0.205691
vt 0.549440 0.192165
vt 0.558117 0.175137
vt 0.500000 0.156250
vt 0.561112 0.156250
vt 0.648603 0.107966
vt 0.626409 0.064408
vt 0.591842 0.029841
vt 0.548284 0.007647
vt 0.500000 -0.000000
vt 0.451716 0.007647
vt 0.408159 0.029841
vt 0.373591 0.064409
vt 0.351397 0.107966
vt 0.343750 0.156250
vt 0.351397 0.204534
vt 0.373591 0.248091
vt 0.408159 0.282659
vt 0.451716 0.304853
vt 0.500000 0.312500
vt 0.548284 0.304853
vt 0.591841 0.282659
vt 0.626409 0.248091
vt 0.648603 0.204534
vt 0.656250 0.156250
vt 0.608430 0.121018
vt 0.648603 0.107966
vt 0.648103 0.108129
vt 0.625984 0.064718
vt 0.626409 0.064408
vt 0.592237 0.089236
vt 0.591531 0.030266
vt 0.591842 0.029841
vt 0.567009 0.064014
vt 0.548120 0.008147
vt 0.548284 0.007647
vt 0.535229 0.047820
vt 0.500000 0.000526
vt 0.500000 -0.000000
vt 0.500000 0.042240
vt 0.451880 0.008147
vt 0.451716 0.007647
vt 0.464771 0.047820
vt 0.408469 0.030266
vt 0.408159 0.029841
vt 0.432991 0.064014
vt 0.374016 0.064718
vt 0.373591 0.064409
vt 0.407763 0.089236
vt 0.351898 0.108129
vt 0.351397 0.107966
vt 0.391570 0.121018
vt 0.344276 0.156250
vt 0.343750 0.156250
vt 0.385991 0.156250
vt 0.351898 0.204371
vt 0.351397 0.204534
vt 0.391569 0.191483
vt 0.374016 0.247782
vt 0.373591 0.248091
vt 0.407762 0.223260
vt 0.408468 0.282234
vt 0.408159 0.282659
vt 0.432986 0.248486
vt 0.451882 0.304353
vt 0.451716 0.304853
vt 0.464772 0.264681
vt 0.500000 0.311974
vt 0.500000 0.312500
vt 0.500000 0.270259
vt 0.548118 0.304353
vt 0.548284 0.304853
vt 0.535228 0.264682
vt 0.591532 0.282234
vt 0.591841 0.282659
vt 0.567014 0.248487
vt 0.625984 0.247782
vt 0.626409 0.248091
vt 0.592238 0.223260
vt 0.648102 0.204371
vt 0.648603 0.204534
vt 0.608431 0.191483
vt 0.655724 0.156250
vt 0.656250 0.156250
vt 0.614009 0.156250
vn 0.009086 0.951021 -0.308994
vn 0.009086 0.808985 -0.587760
vn 0.009052 0.808985 -0.587760
vn 0.009052 0.951021 -0.308995
vn 0.009086 0.587758 -0.808986
vn 0.009052 0.587758 -0.808986
vn 0.009086 0.309005 -0.951017
vn 0.009052 0.309004 -0.951018
vn 0.009086 -0.000000 -0.999959
vn 0.009052 -0.000000 -0.999959
vn 0.009086 -0.309005 -0.951017
vn 0.009052 -0.309004 -0.951017
vn 0.009086 -0.587758 -0.808986
vn 0.009052 -0.587758 -0.808986
vn 0.009086 -0.808985 -0.587760
vn 0.009052 -0.808985 -0.587760
vn 0.009086 -0.951021 -0.308994
vn 0.009052 -0.951020 -0.308995
vn 0.009086 -0.999959 -0.000000
vn 0.009052 -0.999959 0.000000
vn 0.009086 -0.951018 0.309003
vn 0.009052 -0.951018 0.309004
vn 0.009086 -0.808985 0.587759
vn 0.009052 -0.808984 0.587760
vn 0.009086 -0.587763 0.808982
vn 0.009052 -0.587763 0.808983
vn 0.009086 -0.309004 0.951017
vn 0.009052 -0.309004 0.951018
vn 0.009086 -0.000000 0.999959
vn 0.009052 0.000000 0.999959
vn 0.009086 0.309004 0.951017
vn 0.009052 0.309004 0.951018
vn 0.009086 0.587763 0.808982
vn 0.009052 0.587763 0.808983
vn 0.009086 0.808985 0.587759
vn 0.009052 0.808984 0.587760
vn 0.009086 0.951018 0.309003
vn 0.009052 0.951018 0.309004
vn 0.009086 0.999959 -0.000000
vn 0.009052 0.999959 0.000000
vn -1.000000 0.000000 0.000000
vn -1.000000 0.000000 0.000000
vn -1.000000 0.000000 0.000000
vn -1.000000 0.000000 0.000000
vn -1.000000 0.000000 0.000000
vn -1.000000 0.000000 0.000000
vn -1.000000 0.000000 0.000000
vn -1.000000 0.000000 0.000000
vn -1.000000 0.000000 0.000000
vn -1.000000 0.000000 0.000000
vn -1.000000 0.000000 0.000000
vn -1.000000 0.000000 0.000000
vn -1.000000 0.000000 0.000000
vn -1.000000 0.000000 0.000000
vn -1.000000 0.000000 0.000000
vn -1.000000 0.000000 0.000000
vn -1.000000 0.000000 0.000000
vn -1.000000 0.000000 0.000000
vn -1.000000 0.000000 0.000000
vn -1.000000 0.000000 0.000000
vn -1.000000 0.000000 0.000000
vn 0.402269 0.870723 -0.282880
vn 0.402254 0.740675 -0.538138
vn 0.729559 0.650450 -0.211326
vn 0.729538 0.553319 -0.402010
vn 0.923916 0.363871 -0.118229
vn 0.923920 0.309528 -0.224864
vn 0.993720 0.106397 -0.034632
vn 0.993717 0.090516 -0.065830
vn 1.000000 0.000000 0.000006
vn 0.993724 0.065760 -0.090488
vn 0.993721 0.034573 -0.106412
vn 0.993720 -0.000000 -0.111898
vn 0.993721 -0.034573 -0.106416
vn 0.993725 -0.065760 -0.090478
vn 0.993719 -0.090516 -0.065795
vn 0.993720 -0.106396 -0.034658
vn 0.993721 -0.111882 -0.000030
vn 0.993720 -0.106400 0.034634
vn 0.993719 -0.090511 0.065802
vn 0.993724 -0.065761 0.090485
vn 0.993719 -0.034571 0.106428
vn 0.993717 -0.000003 0.111919
vn 0.993720 0.034569 0.106421
vn 0.993722 0.065763 0.090511
vn 0.993717 0.090510 0.065839
vn 0.993719 0.106400 0.034664
vn 0.993721 0.111882 0.000026
vn 0.923929 0.224869 -0.309498
vn 0.729538 0.402004 -0.553324
vn 0.402268 0.538114 -0.740685
vn 0.923922 0.118224 -0.363857
vn 0.729547 0.211352 -0.650455
vn 0.402270 0.282901 -0.870716
vn 0.923912 -0.000000 -0.382606
vn 0.729527 -0.000001 -0.683952
vn 0.402260 -0.000001 -0.915525
vn 0.923914 -0.118222 -0.363877
vn 0.729534 -0.211348 -0.650471
vn 0.402266 -0.282900 -0.870718
vn 0.923926 -0.224868 -0.309507
vn 0.729551 -0.402011 -0.553301
vn 0.402271 -0.538117 -0.740681
vn 0.923918 -0.309527 -0.224873
vn 0.729551 -0.553328 -0.401975
vn 0.402261 -0.740687 -0.538116
vn 0.923914 -0.363870 -0.118246
vn 0.729560 -0.650451 -0.211321
vn 0.402270 -0.870725 -0.282872
vn 0.923921 -0.382584 -0.000017
vn 0.729540 -0.683938 -0.000000
vn 0.402277 -0.915518 -0.000000
vn 0.923914 -0.363872 0.118236
vn 0.729559 -0.650447 0.211334
vn 0.402270 -0.870722 0.282880
vn 0.923920 -0.309519 0.224880
vn 0.729559 -0.553310 0.401984
vn 0.402282 -0.740677 0.538114
vn 0.923924 -0.224868 0.309513
vn 0.729562 -0.401969 0.553318
vn 0.402315 -0.538100 0.740669
vn 0.923916 -0.118234 0.363868
vn 0.729546 -0.211341 0.650459
vn 0.402292 -0.282872 0.870715
vn 0.923910 -0.000005 0.382610
vn 0.729545 -0.000004 0.683933
vn 0.402255 -0.000002 0.915528
vn 0.923907 0.118231 0.363892
vn 0.729544 0.211341 0.650462
vn 0.402287 0.282871 0.870718
vn 0.923915 0.224870 0.309539
vn 0.729560 0.401974 0.553316
vn 0.402311 0.538101 0.740671
vn 0.923918 0.309519 0.224886
vn 0.729561 0.553313 0.401976
vn 0.402283 0.740680 0.538109
vn 0.923912 0.363871 0.118254
vn 0.729561 0.650448 0.211325
vn 0.402271 0.870724 0.282874
vn 0.923921 0.382584 0.000018
vn 0.729540 0.683938 0.000002
vn 0.402278 0.915518 -0.000000
s 1
g poolCue
usemtl phong2SG
f 1/1/1 2/2/2 22/23/3 21/22/4
f 2/2/2 3/3/5 23/24/6 22/23/3
f 3/3/5 4/4/7 24/25/8 23/24/6
f 4/4/7 5/5/9 25/26/10 24/25/8
f 5/5/9 6/6/11 26/27/12 25/26/10
f 6/6/11 7/7/13 27/28/14 26/27/12
f 7/7/13 8/8/15 28/29/16 27/28/14
f 8/8/15 9/9/17 29/30/18 28/29/16
f 9/9/17 10/10/19 30/31/20 29/30/18
f 10/10/19 11/11/21 31/32/22 30/31/20
f 11/11/21 12/12/23 32/33/24 31/32/22
f 12/12/23 13/13/25 33/34/26 32/33/24
f 13/13/25 14/14/27 34/35/28 33/34/26
f 14/14/27 15/15/29 35/36/30 34/35/28
f 15/15/29 16/16/31 36/37/32 35/36/30
f 16/16/31 17/17/33 37/38/34 36/37/32
f 17/17/33 18/18/35 38/39/36 37/38/34
f 18/18/35 19/19/37 39/40/38 38/39/36
f 19/19/37 20/20/39 40/41/40 39/40/38
f 20/20/39 1/21/1 21/42/4 40/41/40
s 2
f 21/61/41 22/60/42 41/63/43
f 22/60/42 23/59/44 41/63/43
f 23/59/44 24/58/45 41/63/43
f 24/58/45 25/57/46 41/63/43
f 25/57/46 26/56/47 41/63/43
f 26/56/47 27/55/48 41/63/43
f 27/55/48 28/54/49 41/63/43
f 28/54/49 29/53/50 41/63/43
f 29/53/50 30/52/51 41/63/43
f 30/52/51 31/51/52 41/63/43
f 31/51/52 32/50/53 41/63/43
f 32/50/53 33/49/54 41/63/43
f 33/49/54 34/48/55 41/63/43
f 34/48/55 35/47/56 41/63/43
f 35/47/56 36/46/57 41/63/43
f 36/46/57 37/45/58 41/63/43
f 37/45/58 38/44/59 41/63/43
f 38/44/59 39/43/60 41/63/43
f 39/43/60 40/62/61 41/63/43
f 40/62/61 21/61/41 41/63/43
s 1
f 1/85/1 46/107/62 47/108/63 2/86/2
f 46/107/62 45/106/64 48/109/65 47/108/63
f 45/106/64 44/105/66 49/110/67 48/109/65
f 44/105/66 43/64/68 50/65/69 49/110/67
f 50/65/69 43/64/68 42/83/70
f 54/66/71 50/65/69 42/83/70
f 58/67/72 54/66/71 42/83/70
f 62/68/73 58/67/72 42/83/70
f 66/69/74 62/68/73 42/83/70
f 70/70/75 66/69/74 42/83/70
f 74/71/76 70/70/75 42/83/70
f 78/72/77 74/71/76 42/83/70
f 82/73/78 78/72/77 42/83/70
f 86/74/79 82/73/78 42/83/70
f 90/75/80 86/74/79 42/83/70
f 94/76/81 90/75/80 42/83/70
f 98/77/82 94/76/81 42/83/70
f 102/78/83 98/77/82 42/83/70
f 106/79/84 102/78/83 42/83/70
f 110/80/85 106/79/84 42/83/70
f 114/81/86 110/80/85 42/83/70
f 118/82/87 114/81/86 42/83/70
f 122/84/88 118/82/87 42/83/70
f 43/64/68 122/84/88 42/83/70
f 49/110/67 50/65/69 54/66/71 53/113/89
f 48/109/65 49/110/67 53/113/89 52/112/90
f 2/86/2 47/108/63 51/111/91 3/87/5
f 47/108/63 48/109/65 52/112/90 51/111/91
f 53/113/89 54/66/71 58/67/72 57/116/92
f 52/112/90 53/113/89 57/116/92 56/115/93
f 3/87/5 51/111/91 55/114/94 4/88/7
f 51/111/91 52/112/90 56/115/93 55/114/94
f 57/116/92 58/67/72 62/68/73 61/119/95
f 56/115/93 57/116/92 61/119/95 60/118/96
f 4/88/7 55/114/94 59/117/97 5/89/9
f 55/114/94 56/115/93 60/118/96 59/117/97
f 61/119/95 62/68/73 66/69/74 65/122/98
f 60/118/96 61/119/95 65/122/98 64/121/99
f 5/89/9 59/117/97 63/120/100 6/90/11
f 59/117/97 60/118/96 64/121/99 63/120/100
f 65/122/98 66/69/74 70/70/75 69/125/101
f 64/121/99 65/122/98 69/125/101 68/124/102
f 6/90/11 63/120/100 67/123/103 7/91/13
f 63/120/100 64/121/99 68/124/102 67/123/103
f 69/125/101 70/70/75 74/71/76 73/128/104
f 68/124/102 69/125/101 73/128/104 72/127/105
f 7/91/13 67/123/103 71/126/106 8/92/15
f 67/123/103 68/124/102 72/127/105 71/126/106
f 73/128/104 74/71/76 78/72/77 77/131/107
f 72/127/105 73/128/104 77/131/107 76/130/108
f 8/92/15 71/126/106 75/129/109 9/93/17
f 71/126/106 72/127/105 76/130/108 75/129/109
f 77/131/107 78/72/77 82/73/78 81/134/110
f 76/130/108 77/131/107 81/134/110 80/133/111
f 9/93/17 75/129/109 79/132/112 10/94/19
f 75/129/109 76/130/108 80/133/111 79/132/112
f 81/134/110 82/73/78 86/74/79 85/137/113
f 80/133/111 81/134/110 85/137/113 84/136/114
f 10/94/19 79/132/112 83/135/115 11/95/21
f 79/132/112 80/133/111 84/136/114 83/135/115
f 85/137/113 86/74/79 90/75/80 89/140/116
f 84/136/114 85/137/113 89/140/116 88/139/117
f 11/95/21 83/135/115 87/138/118 12/96/23
f 83/135/115 84/136/114 88/139/117 87/138/118
f 89/140/116 90/75/80 94/76/81 93/143/119
f 88/139/117 89/140/116 93/143/119 92/142/120
f 12/96/23 87/138/118 91/141/121 13/97/25
f 87/138/118 88/139/117 92/142/120 91/141/121
f 93/143/119 94/76/81 98/77/82 97/146/122
f 92/142/120 93/143/119 97/146/122 96/145/123
f 13/97/25 91/141/121 95/144/124 14/98/27
f 91/141/121 92/142/120 96/145/123 95/144/124
f 97/146/122 98/77/82 102/78/83 101/149/125
f 96/145/123 97/146/122 101/149/125 100/148/126
f 14/98/27 95/144/124 99/147/127 15/99/29
f 95/144/124 96/145/123 100/148/126 99/147/127
f 101/149/125 102/78/83 106/79/84 105/152/128
f 100/148/126 101/149/125 105/152/128 104/151/129
f 15/99/29 99/147/127 103/150/130 16/100/31
f 99/147/127 100/148/126 104/151/129 103/150/130
f 105/152/128 106/79/84 110/80/85 109/155/131
f 104/151/129 105/152/128 109/155/131 108/154/132
f 16/100/31 103/150/130 107/153/133 17/101/33
f 103/150/130 104/151/129 108/154/132 107/153/133
f 109/155/131 110/80/85 114/81/86 113/158/134
f 108/154/132 109/155/131 113/158/134 112/157/135
f 17/101/33 107/153/133 111/156/136 18/102/35
f 107/153/133 108/154/132 112/157/135 111/156/136
f 113/158/134 114/81/86 118/82/87 117/161/137
f 112/157/135 113/158/134 117/161/137 116/160/138
f 18/102/35 111/156/136 115/159/139 19/103/37
f 111/156/136 112/157/135 116/160/138 115/159/139
f 117/161/137 118/82/87 122/84/88 121/164/140
f 116/160/138 117/161/137 121/164/140 120/163/141
f 19/103/37 115/159/139 119/162/142 20/104/39
f 115/159/139 116/160/138 120/163/141 119/162/142
f 43/64/68 44/105/66 121/164/140 122/84/88
f 44/105/66 45/106/64 120/163/141 121/164/140
f 45/106/64 46/107/62 119/162/142 120/163/141
f 46/107/62 1/85/1 20/104/39 119/162/142
